<?xml version="1.0" encoding="UTF-8"?>
<svg id="Layer_1" data-name="Layer 1" xmlns="http://www.w3.org/2000/svg" viewBox="0 0 2097.3 1470.86">
  <defs>
    <style>
      .cls-1 {
        fill: #daa520;
      }

      .cls-2 {
        fill: #d0a964;
      }
    </style>
  </defs>
  <g>
    <g>
      <path class="cls-1" d="M252.74,1158.7v1.64h-2.29c-6.85,0-13.07,4.53-16.47,9.57l-32.24,51.34v40.16c.11,5.7,4.76,10.3,10.49,10.3h2.07l.03,1.64h-49.74l.03-1.64h2.07c5.7,0,10.33-4.54,10.49-10.19v-40.36l-31.19-51.42c-3.21-4.96-9.59-9.4-16.26-9.4h-2.29v-1.63h54.19v1.63h-2.06c-4.78,0-8.13,5.49-5.75,10.13l23.33,42.58,24.37-42.58c2.6-4.64-1.29-10.13-5.75-10.13h-2.06v-1.64h39.04Z"/>
      <path class="cls-1" d="M336.87,1262.2c3.54,6.7,9.15,9.5,13.98,9.5h1.37v1.64h-52.18v-1.62h1.44c4.23,0,8.83-3.73,6.33-10.28l-8.06-20.24h-38.43l-8.38,20.24c-2.69,6.55,2.04,10.28,6.26,10.28h1.44v1.62h-35.11v-1.64h1.47c4.65,0,10.3-2.72,13.78-9.23l37.87-85.6c1.17-2.49,7.66-16.69,8.05-21.46h1.48l48.69,106.79Zm-39.87-27.91l-16.02-40.21-16.78,40.21h32.8Z"/>
      <path class="cls-1" d="M484.23,1158.7l-.02,1.64h-3.02c-5.48,0-9.93,4.35-10.11,9.79v84.62c0,12.34,1.89,20.89,1.89,20.89h-1.49l-82.75-78.79v64.99c.13,5.48,4.6,9.88,10.11,9.88h3.02l.02,1.64h-49.64l.02-1.64h3.02c5.52,0,10-4.43,10.11-9.92v-85.08c0-12.17-1.91-20.46-1.91-20.46h1.61l82.62,78.76v-64.75c-.1-5.5-4.58-9.93-10.11-9.93h-3.02l-.02-1.64h49.66Z"/>
      <path class="cls-1" d="M552.65,1158.72c38.69,0,62.79,21.95,62.79,57.36s-24.1,57.27-62.79,57.27h-59.42l.03-1.64h2.07c5.73,0,10.37-4.58,10.49-10.28v-91.73c0-5.27-5.01-9.37-10.43-9.37h-2.07l-.03-1.62h59.36Zm-22.25,107.67h20.26c23.47,0,38.08-19.27,38.08-50.3s-14.67-50.45-38.08-50.45h-20.26v100.75Z"/>
      <path class="cls-1" d="M723.51,1262.2c3.54,6.7,9.15,9.5,13.98,9.5h1.37v1.64h-52.18v-1.62h1.44c4.23,0,8.83-3.73,6.33-10.28l-8.06-20.24h-38.43l-8.38,20.24c-2.69,6.55,2.04,10.28,6.26,10.28h1.44v1.62h-35.11v-1.64h1.47c4.65,0,10.3-2.72,13.78-9.23l37.87-85.6c1.17-2.49,7.66-16.69,8.05-21.46h1.48l48.69,106.79Zm-39.87-27.91l-16.02-40.21-16.78,40.21h32.8Z"/>
      <path class="cls-1" d="M841.2,1158.72c38.69,0,62.79,21.95,62.79,57.36s-24.1,57.27-62.79,57.27h-59.42l.03-1.64h2.07c5.73,0,10.37-4.58,10.49-10.28v-91.73c0-5.27-5.01-9.37-10.43-9.37h-2.07l-.03-1.62h59.36Zm-22.25,107.67h20.26c23.47,0,38.08-19.27,38.08-50.3s-14.67-50.45-38.08-50.45h-20.26v100.75Z"/>
      <path class="cls-1" d="M998.91,1273.34h-84.79l.03-1.64h2.07c5.73,0,10.38-4.59,10.49-10.3v-91.3c-.37-5.46-4.91-9.78-10.47-9.78h-2.07l-.03-1.63h62.78c7.06-.06,16.5-1.7,19.55-2.98v28.63l-1.65-.02v-1.92c.02-9.86-6.18-16.29-16-16.71h-27.55v47.65h21.71c8.04-.15,13.91-6.06,13.89-14.03v-1.42l1.6-.02v37.85l-1.6-.02v-1.42c.02-7.91-5.75-13.78-13.68-14.03h-21.92v46.09h21.5c16.36,0,26.98-10.17,32.05-26.42h1.64l-7.55,33.42Z"/>
      <path class="cls-1" d="M1146.81,1158.7l-.02,1.64h-3.02c-5.48,0-9.93,4.35-10.11,9.79v84.62c0,12.34,1.89,20.89,1.89,20.89h-1.49l-82.75-78.79v64.99c.13,5.48,4.6,9.88,10.11,9.88h3.02l.02,1.64h-49.64l.02-1.64h3.02c5.52,0,10-4.43,10.11-9.92v-85.08c0-12.17-1.91-20.46-1.91-20.46h1.61l82.62,78.76v-64.75c-.1-5.5-4.58-9.93-10.11-9.93h-3.02l-.02-1.64h49.66Z"/>
      <path class="cls-1" d="M1258.58,1184.11l-1.65-.02v-1.92c.02-9.99-6.34-16.46-16.39-16.72h-22v96.1c.18,5.65,4.8,10.17,10.49,10.17h2.07l.03,1.64h-49.77l.03-1.64h2.07c5.64,0,10.24-4.45,10.48-10.03v-96.24h-22.02c-10.05,.26-16.41,6.73-16.39,16.72v1.92l-1.65,.02v-28.54c3.02,1.27,12.36,2.89,19.41,2.98h65.88c7.05-.08,16.39-1.7,19.41-2.98v28.54Z"/>
      <path class="cls-1" d="M1353.01,1262.2c3.54,6.7,9.15,9.5,13.98,9.5h1.37v1.64h-52.18v-1.62h1.44c4.23,0,8.83-3.73,6.33-10.28l-8.06-20.24h-38.43l-8.38,20.24c-2.69,6.55,2.04,10.28,6.26,10.28h1.44v1.62h-35.11v-1.64h1.47c4.65,0,10.3-2.72,13.78-9.23l37.87-85.6c1.17-2.49,7.66-16.69,8.05-21.46h1.48l48.69,106.79Zm-39.87-27.91l-16.02-40.21-16.78,40.21h32.8Z"/>
      <path class="cls-1" d="M1455.14,1273.34h-84.79l.03-1.64h2.07c5.73,0,10.38-4.59,10.49-10.3v-90.77c-.11-5.7-4.76-10.3-10.49-10.3h-2.07l-.03-1.64h49.75l-.03,1.64h-2.07c-5.73,0-10.38,4.59-10.49,10.3v95.71h21.5c16.36,0,26.98-10.17,32.05-26.42h1.64l-7.55,33.42Z"/>
      <path class="cls-1" d="M1623.54,1225.55l1.58,28.19c-7.34,12.12-21.29,21.91-46.02,21.91-40.21-.16-66.44-22.39-66.44-59.77s25.31-59.45,66.91-59.45c17.44,0,31.44,4.05,40.72,8.87l.32,28.1h-1.36c-5.97-21.5-20.03-30.07-38.04-30.08-25.98,0-41.85,20.01-41.85,52.18s15.35,52.59,39.74,53.25c25.2-.03,37.97-11,43.07-43.2h1.37Z"/>
      <path class="cls-1" d="M1739.81,1262.2c3.54,6.7,9.15,9.5,13.98,9.5h1.37v1.64h-52.18v-1.62h1.44c4.23,0,8.83-3.73,6.33-10.28l-8.06-20.24h-38.43l-8.38,20.24c-2.69,6.55,2.04,10.28,6.26,10.28h1.44v1.62h-35.11v-1.64h1.47c4.65,0,10.3-2.72,13.78-9.23l37.87-85.6c1.17-2.49,7.66-16.69,8.05-21.46h1.48l48.69,106.79Zm-39.87-27.91l-16.02-40.21-16.78,40.21h32.8Z"/>
      <path class="cls-1" d="M1813.85,1158.7c19.86,0,38.95,8.08,38.95,30.88,0,13.78-8.22,29.27-26.81,31.12,6.92,2.27,13.07,8.77,16.71,14.51,.5,.8,10.32,16.37,16.49,24.06,7.06,8.99,11.73,12.29,20.27,12.42v1.64h-15.94c-17.91,0-30.94-3.88-38.46-16.98-3.98-6.94-11.37-23.15-13.64-28.05-3.18-6.84-6.84-10.31-11.09-11.04v-1.56h5c8.81-.09,17.76-4.59,20.68-18.93,.38-1.99,.74-4.63,.61-7.93-.65-15.66-8.56-22.67-19.32-22.93-4.34-.19-10.37,0-12.42-.06v95.54c.11,5.7,4.76,10.3,10.52,10.3h2.04l.03,1.64h-49.8l.03-1.64h2.07c5.71,0,10.34-4.55,10.48-10.22v-90.86c-.11-5.7-4.76-10.3-10.47-10.29h-2.09l-.03-1.63h56.2Z"/>
      <path class="cls-1" d="M1962.32,1273.34h-84.79l.03-1.64h2.07c5.73,0,10.38-4.59,10.49-10.3v-91.3c-.37-5.46-4.91-9.78-10.47-9.78h-2.07l-.03-1.63h62.78c7.06-.06,16.5-1.7,19.55-2.98v28.63l-1.65-.02v-1.92c.02-9.86-6.18-16.29-16-16.71h-27.55v47.65h21.71c8.04-.15,13.91-6.06,13.89-14.03v-1.42l1.6-.02v37.85l-1.6-.02v-1.42c.02-7.91-5.75-13.78-13.68-14.03h-21.92v46.09h21.5c16.36,0,26.98-10.17,32.05-26.42h1.64l-7.55,33.42Z"/>
    </g>
    <g>
      <path class="cls-2" d="M252.74,1158.7v1.64h-2.29c-6.85,0-13.07,4.53-16.47,9.57l-32.24,51.34v40.16c.11,5.7,4.76,10.3,10.49,10.3h2.07l.03,1.64h-49.74l.03-1.64h2.07c5.7,0,10.33-4.54,10.49-10.19v-40.36l-31.19-51.42c-3.21-4.96-9.59-9.4-16.26-9.4h-2.29v-1.63h54.19v1.63h-2.06c-4.78,0-8.13,5.49-5.75,10.13l23.33,42.58,24.37-42.58c2.6-4.64-1.29-10.13-5.75-10.13h-2.06v-1.64h39.04Z"/>
      <path class="cls-2" d="M336.87,1262.2c3.54,6.7,9.15,9.5,13.98,9.5h1.37v1.64h-52.18v-1.62h1.44c4.23,0,8.83-3.73,6.33-10.28l-8.06-20.24h-38.43l-8.38,20.24c-2.69,6.55,2.04,10.28,6.26,10.28h1.44v1.62h-35.11v-1.64h1.47c4.65,0,10.3-2.72,13.78-9.23l37.87-85.6c1.17-2.49,7.66-16.69,8.05-21.46h1.48l48.69,106.79Zm-39.87-27.91l-16.02-40.21-16.78,40.21h32.8Z"/>
      <path class="cls-2" d="M484.23,1158.7l-.02,1.64h-3.02c-5.48,0-9.93,4.35-10.11,9.79v84.62c0,12.34,1.89,20.89,1.89,20.89h-1.49l-82.75-78.79v64.99c.13,5.48,4.6,9.88,10.11,9.88h3.02l.02,1.64h-49.64l.02-1.64h3.02c5.52,0,10-4.43,10.11-9.92v-85.08c0-12.17-1.91-20.46-1.91-20.46h1.61l82.62,78.76v-64.75c-.1-5.5-4.58-9.93-10.11-9.93h-3.02l-.02-1.64h49.66Z"/>
      <path class="cls-2" d="M552.65,1158.72c38.69,0,62.79,21.95,62.79,57.36s-24.1,57.27-62.79,57.27h-59.42l.03-1.64h2.07c5.73,0,10.37-4.58,10.49-10.28v-91.73c0-5.27-5.01-9.37-10.43-9.37h-2.07l-.03-1.62h59.36Zm-22.25,107.67h20.26c23.47,0,38.08-19.27,38.08-50.3s-14.67-50.45-38.08-50.45h-20.26v100.75Z"/>
      <path class="cls-2" d="M723.51,1262.2c3.54,6.7,9.15,9.5,13.98,9.5h1.37v1.64h-52.18v-1.62h1.44c4.23,0,8.83-3.73,6.33-10.28l-8.06-20.24h-38.43l-8.38,20.24c-2.69,6.55,2.04,10.28,6.26,10.28h1.44v1.62h-35.11v-1.64h1.47c4.65,0,10.3-2.72,13.78-9.23l37.87-85.6c1.17-2.49,7.66-16.69,8.05-21.46h1.48l48.69,106.79Zm-39.87-27.91l-16.02-40.21-16.78,40.21h32.8Z"/>
      <path class="cls-2" d="M841.2,1158.72c38.69,0,62.79,21.95,62.79,57.36s-24.1,57.27-62.79,57.27h-59.42l.03-1.64h2.07c5.73,0,10.37-4.58,10.49-10.28v-91.73c0-5.27-5.01-9.37-10.43-9.37h-2.07l-.03-1.62h59.36Zm-22.25,107.67h20.26c23.47,0,38.08-19.27,38.08-50.3s-14.67-50.45-38.08-50.45h-20.26v100.75Z"/>
      <path class="cls-2" d="M998.91,1273.34h-84.79l.03-1.64h2.07c5.73,0,10.38-4.59,10.49-10.3v-91.3c-.37-5.46-4.91-9.78-10.47-9.78h-2.07l-.03-1.63h62.78c7.06-.06,16.5-1.7,19.55-2.98v28.63l-1.65-.02v-1.92c.02-9.86-6.18-16.29-16-16.71h-27.55v47.65h21.71c8.04-.15,13.91-6.06,13.89-14.03v-1.42l1.6-.02v37.85l-1.6-.02v-1.42c.02-7.91-5.75-13.78-13.68-14.03h-21.92v46.09h21.5c16.36,0,26.98-10.17,32.05-26.42h1.64l-7.55,33.42Z"/>
      <path class="cls-2" d="M1146.81,1158.7l-.02,1.64h-3.02c-5.48,0-9.93,4.35-10.11,9.79v84.62c0,12.34,1.89,20.89,1.89,20.89h-1.49l-82.75-78.79v64.99c.13,5.48,4.6,9.88,10.11,9.88h3.02l.02,1.64h-49.64l.02-1.64h3.02c5.52,0,10-4.43,10.11-9.92v-85.08c0-12.17-1.91-20.46-1.91-20.46h1.61l82.62,78.76v-64.75c-.1-5.5-4.58-9.93-10.11-9.93h-3.02l-.02-1.64h49.66Z"/>
      <path class="cls-2" d="M1258.58,1184.11l-1.65-.02v-1.92c.02-9.99-6.34-16.46-16.39-16.72h-22v96.1c.18,5.65,4.8,10.17,10.49,10.17h2.07l.03,1.64h-49.77l.03-1.64h2.07c5.64,0,10.24-4.45,10.48-10.03v-96.24h-22.02c-10.05,.26-16.41,6.73-16.39,16.72v1.92l-1.65,.02v-28.54c3.02,1.27,12.36,2.89,19.41,2.98h65.88c7.05-.08,16.39-1.7,19.41-2.98v28.54Z"/>
      <path class="cls-2" d="M1353.01,1262.2c3.54,6.7,9.15,9.5,13.98,9.5h1.37v1.64h-52.18v-1.62h1.44c4.23,0,8.83-3.73,6.33-10.28l-8.06-20.24h-38.43l-8.38,20.24c-2.69,6.55,2.04,10.28,6.26,10.28h1.44v1.62h-35.11v-1.64h1.47c4.65,0,10.3-2.72,13.78-9.23l37.87-85.6c1.17-2.49,7.66-16.69,8.05-21.46h1.48l48.69,106.79Zm-39.87-27.91l-16.02-40.21-16.78,40.21h32.8Z"/>
      <path class="cls-2" d="M1455.14,1273.34h-84.79l.03-1.64h2.07c5.73,0,10.38-4.59,10.49-10.3v-90.77c-.11-5.7-4.76-10.3-10.49-10.3h-2.07l-.03-1.64h49.75l-.03,1.64h-2.07c-5.73,0-10.38,4.59-10.49,10.3v95.71h21.5c16.36,0,26.98-10.17,32.05-26.42h1.64l-7.55,33.42Z"/>
      <path class="cls-2" d="M1623.54,1225.55l1.58,28.19c-7.34,12.12-21.29,21.91-46.02,21.91-40.21-.16-66.44-22.39-66.44-59.77s25.31-59.45,66.91-59.45c17.44,0,31.44,4.05,40.72,8.87l.32,28.1h-1.36c-5.97-21.5-20.03-30.07-38.04-30.08-25.98,0-41.85,20.01-41.85,52.18s15.35,52.59,39.74,53.25c25.2-.03,37.97-11,43.07-43.2h1.37Z"/>
      <path class="cls-2" d="M1739.81,1262.2c3.54,6.7,9.15,9.5,13.98,9.5h1.37v1.64h-52.18v-1.62h1.44c4.23,0,8.83-3.73,6.33-10.28l-8.06-20.24h-38.43l-8.38,20.24c-2.69,6.55,2.04,10.28,6.26,10.28h1.44v1.62h-35.11v-1.64h1.47c4.65,0,10.3-2.72,13.78-9.23l37.87-85.6c1.17-2.49,7.66-16.69,8.05-21.46h1.48l48.69,106.79Zm-39.87-27.91l-16.02-40.21-16.78,40.21h32.8Z"/>
      <path class="cls-2" d="M1813.85,1158.7c19.86,0,38.95,8.08,38.95,30.88,0,13.78-8.22,29.27-26.81,31.12,6.92,2.27,13.07,8.77,16.71,14.51,.5,.8,10.32,16.37,16.49,24.06,7.06,8.99,11.73,12.29,20.27,12.42v1.64h-15.94c-17.91,0-30.94-3.88-38.46-16.98-3.98-6.94-11.37-23.15-13.64-28.05-3.18-6.84-6.84-10.31-11.09-11.04v-1.56h5c8.81-.09,17.76-4.59,20.68-18.93,.38-1.99,.74-4.63,.61-7.93-.65-15.66-8.56-22.67-19.32-22.93-4.34-.19-10.37,0-12.42-.06v95.54c.11,5.7,4.76,10.3,10.52,10.3h2.04l.03,1.64h-49.8l.03-1.64h2.07c5.71,0,10.34-4.55,10.48-10.22v-90.86c-.11-5.7-4.76-10.3-10.47-10.29h-2.09l-.03-1.63h56.2Z"/>
      <path class="cls-2" d="M1962.32,1273.34h-84.79l.03-1.64h2.07c5.73,0,10.38-4.59,10.49-10.3v-91.3c-.37-5.46-4.91-9.78-10.47-9.78h-2.07l-.03-1.63h62.78c7.06-.06,16.5-1.7,19.55-2.98v28.63l-1.65-.02v-1.92c.02-9.86-6.18-16.29-16-16.71h-27.55v47.65h21.71c8.04-.15,13.91-6.06,13.89-14.03v-1.42l1.6-.02v37.85l-1.6-.02v-1.42c.02-7.91-5.75-13.78-13.68-14.03h-21.92v46.09h21.5c16.36,0,26.98-10.17,32.05-26.42h1.64l-7.55,33.42Z"/>
    </g>
  </g>
  <g>
    <path class="cls-2" d="M418.49,1313.16c15.79,0,22.63,7.6,22.95,17.68,.57,15.91-16.48,24.79-29.64,16.15v-.87c-.07-.06,11.1,1.11,14.31-10.52,.44-1.63,.65-3.79,.57-5.55-.26-7.87-4.49-13-11.88-13h-6.16v53.98c.06,3.21,2.68,5.8,5.91,5.8h1.17v.92s-28.03,0-28.03,0v-.92h1.18c3.23,0,5.85-2.59,5.91-5.8v-51.63c0-3.11-2.82-5.32-5.89-5.32h-1.16v-.92s30.75,0,30.75,0Z"/>
    <path class="cls-2" d="M479.61,1313.15c11.19,0,21.95,4.55,21.95,17.4,0,7.77-4.63,16.49-15.1,17.53,3.9,1.28,7.37,4.94,9.41,8.18,.28,.45,5.81,9.22,9.29,13.56,3.98,5.07,6.61,6.93,11.42,7v.93h-8.98c-10.09,0-17.44-2.18-21.67-9.56-2.24-3.91-6.4-13.05-7.69-15.8-1.79-3.85-3.85-5.81-6.25-6.22v-.88h2.82c4.96-.05,10.01-2.58,11.65-10.67,.22-1.12,.42-2.61,.34-4.47-.37-8.83-4.82-12.77-10.88-12.92-2.45-.11-5.84,0-7-.03v53.83c.06,3.21,2.68,5.8,5.93,5.8h1.15v.92s-28.04,0-28.04,0v-.92h1.18c3.22,0,5.83-2.56,5.91-5.76v-51.19c-.06-3.21-2.68-5.8-5.9-5.8h-1.18v-.92s31.65,0,31.65,0Z"/>
    <path class="cls-2" d="M587.07,1345.45c0,20.73-14.14,33.59-36.3,33.59s-36.3-12.85-36.3-33.59,14.14-33.59,36.3-33.59,36.3,12.85,36.3,33.59Zm-15.14,0c0-18.33-8.15-29.71-21.16-29.71s-21.16,11.38-21.16,29.71,8.15,29.7,21.16,29.7,21.16-11.38,21.16-29.7Z"/>
    <path class="cls-2" d="M657.83,1313.15v.93h-.82c-2.64,0-5.81,1.51-7.77,5.14l-21.85,48.29c-.66,1.4-4.31,9.4-4.54,12.08h-.83l-27.96-60.23c-2-3.74-5.15-5.29-7.87-5.29h-.74v-.93h29.39v.92h-.81c-2.38,0-4.85,2.09-3.55,5.78l15.62,38.14,16.26-38.14c1.52-3.69-1.15-5.78-3.53-5.78h-.81v-.92h19.81Z"/>
    <path class="cls-2" d="M687,1377.75h-28.03v-.92h1.18c3.23,0,5.85-2.59,5.91-5.8v-51.19c-.08-3.2-2.69-5.76-5.91-5.76h-1.17v-.92s28.01,0,28.01,0v.92h-1.18c-3.21,0-5.82,2.56-5.91,5.74v51.21c.06,3.21,2.68,5.8,5.91,5.8h1.17v.92Z"/>
    <path class="cls-2" d="M728.07,1313.16c21.8,0,35.38,12.37,35.38,32.32s-13.58,32.27-35.38,32.27h-33.48v-.92h1.18c3.23,0,5.84-2.58,5.91-5.79v-51.69c0-2.97-2.83-5.28-5.88-5.28h-1.17v-.91s33.43,0,33.43,0Zm-12.54,60.66h11.41c13.23,0,21.46-10.86,21.46-28.34s-8.27-28.43-21.46-28.43h-11.41v56.77Z"/>
    <path class="cls-2" d="M816.93,1377.75h-47.78v-.92h1.18c3.23,0,5.85-2.59,5.91-5.8v-51.44c-.21-3.08-2.77-5.51-5.9-5.51h-1.17v-.92s35.36,0,35.36,0c3.98-.04,9.3-.96,11.01-1.68v16.13h-.93v-1.1c.01-5.55-3.48-9.18-9.01-9.41h-15.53v26.85h12.23c4.53-.09,7.84-3.41,7.82-7.91v-.8h.9s0,21.31,0,21.31h-.9v-.81c.01-4.46-3.24-7.77-7.71-7.9h-12.35v25.97h12.11c9.22,0,15.2-5.73,18.06-14.88h.92l-4.25,18.83Z"/>
    <path class="cls-2" d="M906.74,1371.47c2,3.78,5.16,5.35,7.88,5.35h.77v.92h-29.4v-.91h.81c2.38,0,4.97-2.1,3.57-5.79l-4.54-11.4h-21.65l-4.72,11.4c-1.52,3.69,1.15,5.79,3.53,5.79h.81v.91h-19.78v-.92h.83c2.62,0,5.8-1.53,7.76-5.2l21.34-48.23c.66-1.4,4.31-9.4,4.54-12.09h.83l27.44,60.17Zm-22.47-15.72l-9.03-22.66-9.46,22.66h18.48Z"/>
    <path class="cls-2" d="M983.35,1377.75v-.92h1.18c3.21,0,5.81-2.55,5.91-5.73v-23.56h-29.92v23.49c.06,3.21,2.68,5.8,5.91,5.8h1.17v.92s-28.02,0-28.02,0v-.92h1.18c3.23,0,5.85-2.59,5.91-5.8v-51.15c-.08-3.2-2.69-5.8-5.91-5.8h-1.17v-.92s28.01,0,28.01,0v.92h-1.18c-3.21,0-5.82,2.62-5.91,5.8v23.78h29.92v-23.78c-.12-3.16-2.72-5.8-5.91-5.8h-1.17v-.92s28.01,0,28.01,0v.92h-1.18c-3.23,0-5.85,2.59-5.91,5.8v51.15c.06,3.21,2.68,5.8,5.91,5.8h1.17v.92s-28.02,0-28.02,0Z"/>
    <path class="cls-2" d="M1066.81,1377.75h-47.78v-.92h1.18c3.23,0,5.85-2.59,5.91-5.8v-51.44c-.21-3.08-2.77-5.51-5.9-5.51h-1.17v-.92s35.36,0,35.36,0c3.98-.04,9.3-.96,11.01-1.68v16.13h-.93v-1.1c.01-5.55-3.48-9.18-9.01-9.41h-15.53v26.85h12.23c4.53-.09,7.84-3.41,7.82-7.91v-.8h.9s0,21.31,0,21.31h-.9v-.81c.01-4.46-3.24-7.77-7.71-7.9h-12.35v25.97h12.11c9.22,0,15.2-5.73,18.06-14.88h.92l-4.25,18.83Z"/>
    <path class="cls-2" d="M1133.55,1371.47c2,3.78,5.16,5.35,7.88,5.35h.77v.92h-29.4v-.91h.81c2.38,0,4.97-2.1,3.57-5.79l-4.54-11.4h-21.65l-4.72,11.4c-1.52,3.69,1.15,5.79,3.53,5.79h.81v.91h-19.78v-.92h.83c2.62,0,5.8-1.53,7.76-5.2l21.34-48.23c.66-1.4,4.31-9.4,4.54-12.09h.83l27.44,60.17Zm-22.47-15.72l-9.03-22.66-9.46,22.66h18.48Z"/>
    <path class="cls-2" d="M1191.1,1377.75h-47.78v-.92h1.18c3.23,0,5.85-2.59,5.91-5.8v-51.14c-.06-3.21-2.68-5.8-5.91-5.8h-1.17v-.92s28.02,0,28.02,0v.92h-1.18c-3.23,0-5.85,2.59-5.91,5.8v53.93h12.11c9.22,0,15.2-5.73,18.06-14.88h.92l-4.26,18.83Z"/>
    <path class="cls-2" d="M1252.07,1327.47h-.93v-1.1c.01-5.63-3.57-9.28-9.23-9.42h-12.4v54.15c.1,3.18,2.7,5.73,5.91,5.73h1.17v.92s-28.03,0-28.03,0v-.92h1.18c3.18,0,5.77-2.51,5.91-5.65v-54.22h-12.41c-5.66,.14-9.24,3.79-9.23,9.42v1.08h-.93s0-16.07,0-16.07c1.7,.72,6.97,1.63,10.94,1.68h37.12c3.97-.05,9.23-.96,10.94-1.68v16.08Z"/>
    <path class="cls-2" d="M1300.87,1377.75v-.92h1.18c3.21,0,5.81-2.55,5.91-5.73v-23.56h-29.92v23.49c.06,3.21,2.68,5.8,5.91,5.8h1.17v.92s-28.02,0-28.02,0v-.92h1.18c3.23,0,5.85-2.59,5.91-5.8v-51.15c-.08-3.2-2.69-5.8-5.91-5.8h-1.17v-.92s28.01,0,28.01,0v.92h-1.18c-3.21,0-5.82,2.62-5.91,5.8v23.78h29.92v-23.78c-.12-3.16-2.72-5.8-5.91-5.8h-1.17v-.92s28.01,0,28.01,0v.92h-1.18c-3.23,0-5.85,2.59-5.91,5.8v51.15c.06,3.21,2.68,5.8,5.91,5.8h1.17v.92s-28.02,0-28.02,0Z"/>
    <path class="cls-2" d="M1400.44,1313.15v.92h-1.29c-3.86,0-7.37,2.56-9.28,5.39l-18.17,28.93v22.63c.06,3.21,2.68,5.8,5.91,5.8h1.17v.92s-28.01,0-28.01,0v-.92h1.18c3.21,0,5.82-2.56,5.91-5.74v-22.74l-17.57-28.97c-1.81-2.8-5.4-5.3-9.16-5.3h-1.29v-.92h30.54v.92h-1.16c-2.69,0-4.58,3.09-3.24,5.71l13.15,23.99,13.73-23.99c1.47-2.62-.73-5.71-3.24-5.71h-1.16v-.92h22Z"/>
    <path class="cls-2" d="M1461.3,1344.64c5.49,3.56,8.68,8.4,8.28,15.3-.56,12.02-9.62,19.1-24.38,19.1-8.28,0-16.03-2.13-19.4-5.6-1.53-3.86-.23-11.64,2.19-15.66h.81c-.74,9.62,6.33,17.56,17.4,17.38,8.02-.15,12.76-4.59,12.75-10.37,0-3.74-2.42-6.24-7.38-9.53l-16.08-10.67c-6.35-4.21-9.5-9.83-8.83-16.56,.78-9.55,7.78-16.15,19.42-16.15,2.97,0,8.35,.41,12.57,.95h5.8l-1.21,13.56h-.89c-.01-6.41-5.2-10.62-13.01-10.62-7.26,0-11.85,3.92-12.08,8.87-.22,3.63,2.56,6.07,6.43,8.58l17.6,11.43Z"/>
    <path class="cls-2" d="M1554.56,1371.04c.58,3.65,3.43,5.78,6.72,5.78h1.47v.92h-27.72v-.87h1.44c1.99,0,3.82-1.94,3.6-3.94l-3.65-33.43-17.28,29.89s-3.43,5.72-3.56,10.2h-.87l-23.74-39.86-3.63,33.2c-.22,1.99,1.61,3.94,3.6,3.94h1.44v.87h-19.31v-.92h1.46c3.32,0,6.27-2.13,6.75-5.78l7.64-59.18h.86l28.63,47.07,27.45-47.05h.84l7.88,59.15Z"/>
    <path class="cls-2" d="M1593.7,1377.75h-28.03v-.92h1.18c3.23,0,5.85-2.59,5.91-5.8v-51.19c-.08-3.2-2.69-5.76-5.91-5.76h-1.17v-.92s28.01,0,28.01,0v.92h-1.18c-3.21,0-5.82,2.56-5.91,5.74v51.21c.06,3.21,2.68,5.8,5.91,5.8h1.17v.92Z"/>
    <path class="cls-2" d="M1649.06,1377.75h-47.78v-.92h1.18c3.23,0,5.85-2.59,5.91-5.8v-51.14c-.06-3.21-2.68-5.8-5.91-5.8h-1.17v-.92s28.02,0,28.02,0v.92h-1.18c-3.23,0-5.85,2.59-5.91,5.8v53.93h12.11c9.22,0,15.2-5.73,18.06-14.88h.92l-4.26,18.83Z"/>
    <path class="cls-2" d="M1705.35,1377.75h-47.78v-.92h1.18c3.23,0,5.85-2.59,5.91-5.8v-51.44c-.21-3.08-2.77-5.51-5.9-5.51h-1.17v-.92s35.36,0,35.36,0c3.98-.04,9.3-.96,11.01-1.68v16.13h-.93v-1.1c.01-5.55-3.48-9.18-9.01-9.41h-15.53v26.85h12.23c4.53-.09,7.84-3.41,7.82-7.91v-.8h.9s0,21.31,0,21.31h-.9v-.81c.01-4.46-3.24-7.77-7.71-7.9h-12.35v25.97h12.11c9.22,0,15.2-5.73,18.06-14.88h.92l-4.25,18.83Z"/>
  </g>
  <g>
    <path class="cls-2" d="M1047.89,647.45h0c-114.55,0-309.46-136.15-309.46-335.09,0-82.12,78.57-109.62,141.5-109.62,55.04,0,107.77,21.03,139,36.43-10.27,14.47-43.58,39.95-64.14,39.95s-30.97-9.78-31.57-10.06c.25,.56,9.11,18.83,33.41,18.83,40.99,0,91.25-32.8,91.25-32.8h0c.25-.16,81.24-52.36,167.93-52.36,62.94,0,141.5,27.51,141.5,109.64,0,198.93-194.87,335.07-309.42,335.08Zm-294.01-66.3c-16.54-17.68-62.82-8.84-50.38,117.93,12.44,126.77,104.47,300.13,168.65,293.83,51.5-5.05,46.91-62.31,70.1-125.27,24.48-66.46,54.01-88.5,52.19-106.98-3.11-31.69-94.59-23.44-240.57-179.5Zm588.24-1.45c-143.42,158.41-235.03,151.64-237.62,183.38-.43,5.31,1.72,10.88,5.62,17.67h0c.49,.85,1,1.72,1.54,2.61,9.55,16.8,59.04,113.58,19.78,254.04-23.44,83.87,139.83,9.3,220.75-183.17,0,0,0,0,0-.01,22-50.7,38.15-107.73,42.21-157.43,10.38-126.96-36.04-135.04-52.29-117.1Z"/>
    <path class="cls-2" d="M1047.88,202.72h0c0-30.78-24.95-55.73-55.73-55.73h0c30.78,0,55.73-24.95,55.73-55.73h0c0,30.78,24.95,55.73,55.73,55.73h0c-30.78,0-55.73,24.95-55.73,55.73Z"/>
  </g>
</svg>