<?xml version="1.0" encoding="UTF-8"?>
<svg id="Layer_1" data-name="Layer 1" xmlns="http://www.w3.org/2000/svg" viewBox="0 0 3790.55 1080">
  <defs>
    <style>
      .cls-1 {
        fill: #daa520;
      }

      .cls-2 {
        fill: #d0a964;
      }
    </style>
  </defs>
  <g>
    <g>
      <g>
        <path class="cls-1" d="M1132.54,381.23v2.39h-3.35c-10,0-19.08,6.62-24.03,13.96l-47.05,74.91v58.6c.16,8.32,6.94,15.03,15.31,15.03h3.02l.04,2.39h-72.59l.04-2.39h3.02c8.31,0,15.07-6.62,15.3-14.88v-58.89l-45.51-75.03c-4.68-7.24-13.99-13.71-23.72-13.71h-3.34v-2.38h79.08v2.38h-3.01c-6.98,0-11.86,8.01-8.39,14.78l34.04,62.14,35.57-62.13c3.8-6.77-1.89-14.78-8.39-14.78h-3.01v-2.39h56.97Z"/>
        <path class="cls-1" d="M1255.3,532.26c5.17,9.78,13.35,13.86,20.39,13.86h2v2.39h-76.14v-2.37h2.1c6.17,0,12.88-5.44,9.24-15l-11.76-29.53h-56.08l-12.23,29.53c-3.92,9.56,2.97,15,9.14,15h2.1v2.37h-51.24v-2.39h2.15c6.79,0,15.03-3.97,20.11-13.46l55.26-124.91c1.7-3.63,11.17-24.35,11.75-31.31h2.15l71.05,155.82Zm-58.18-40.72l-23.38-58.68-24.49,58.68h47.86Z"/>
        <path class="cls-1" d="M1470.33,381.23l-.04,2.39h-4.41c-7.99,0-14.49,6.35-14.75,14.29v123.47c0,18.01,2.76,30.49,2.76,30.49h-2.17l-120.75-114.98v94.83c.19,7.99,6.71,14.41,14.75,14.41h4.41l.04,2.39h-72.44l.04-2.39h4.41c8.06,0,14.6-6.46,14.75-14.48v-124.14c0-17.77-2.78-29.85-2.78-29.85h2.36l120.56,114.93v-94.48c-.15-8.02-6.69-14.48-14.75-14.48h-4.41l-.04-2.39h72.46Z"/>
        <path class="cls-1" d="M1570.18,381.26c56.45,0,91.63,32.03,91.63,83.7s-35.17,83.57-91.63,83.57h-86.7l.04-2.39h3.02c8.35,0,15.13-6.69,15.31-15v-133.86c0-7.69-7.32-13.67-15.22-13.67h-3.02l-.04-2.37h86.62Zm-32.47,157.11h29.56c34.25,0,55.57-28.12,55.57-73.39s-21.41-73.62-55.57-73.62h-29.56v147.02Z"/>
        <path class="cls-1" d="M1819.49,532.26c5.17,9.78,13.35,13.86,20.39,13.86h2v2.39h-76.14v-2.37h2.1c6.17,0,12.88-5.44,9.24-15l-11.76-29.53h-56.08l-12.23,29.53c-3.92,9.56,2.97,15,9.14,15h2.1v2.37h-51.24v-2.39h2.15c6.79,0,15.03-3.97,20.11-13.46l55.26-124.91c1.7-3.63,11.17-24.35,11.75-31.31h2.15l71.05,155.82Zm-58.18-40.72l-23.38-58.68-24.49,58.68h47.86Z"/>
        <path class="cls-1" d="M1991.23,381.26c56.45,0,91.63,32.03,91.63,83.7s-35.17,83.57-91.63,83.57h-86.7l.04-2.39h3.02c8.35,0,15.13-6.69,15.31-15v-133.86c0-7.69-7.32-13.67-15.22-13.67h-3.02l-.04-2.37h86.62Zm-32.47,157.11h29.56c34.25,0,55.57-28.12,55.57-73.39s-21.41-73.62-55.57-73.62h-29.56v147.02Z"/>
        <path class="cls-1" d="M2221.35,548.52h-123.73l.04-2.39h3.02c8.36,0,15.15-6.7,15.31-15.03v-133.23c-.54-7.97-7.17-14.26-15.28-14.26h-3.02l-.04-2.38h91.62c10.3-.09,24.08-2.48,28.53-4.35v41.78l-2.41-.04v-2.81c.03-14.38-9.01-23.78-23.34-24.38h-40.21v69.53h31.68c11.74-.22,20.3-8.84,20.26-20.48v-2.07l2.33-.03v55.23l-2.33-.03v-2.07c.03-11.54-8.39-20.11-19.96-20.47h-31.98v67.25h31.37c23.87,0,39.37-14.83,46.77-38.55h2.39l-11.01,48.76Z"/>
        <path class="cls-1" d="M2437.17,381.23l-.04,2.39h-4.41c-7.99,0-14.49,6.35-14.75,14.29v123.47c0,18.01,2.76,30.49,2.76,30.49h-2.17l-120.75-114.98v94.83c.19,7.99,6.71,14.41,14.75,14.41h4.41l.04,2.39h-72.44l.04-2.39h4.41c8.06,0,14.6-6.46,14.75-14.48v-124.14c0-17.77-2.78-29.85-2.78-29.85h2.36l120.56,114.93v-94.48c-.15-8.02-6.69-14.48-14.75-14.48h-4.41l-.04-2.39h72.46Z"/>
        <path class="cls-1" d="M2600.26,418.31l-2.41-.04v-2.81c.03-14.57-9.25-24.03-23.91-24.4h-32.1v140.23c.26,8.24,7,14.84,15.3,14.84h3.02l.04,2.39h-72.63l.04-2.39h3.02c8.23,0,14.94-6.5,15.29-14.64v-140.43h-32.13c-14.66,.37-23.94,9.83-23.91,24.4v2.81l-2.41,.04v-41.65c4.41,1.86,18.04,4.22,28.32,4.34h96.13c10.28-.12,23.91-2.49,28.32-4.34v41.65Z"/>
        <path class="cls-1" d="M2738.05,532.26c5.17,9.78,13.35,13.86,20.39,13.86h2v2.39h-76.14v-2.37h2.1c6.17,0,12.88-5.44,9.24-15l-11.76-29.53h-56.08l-12.23,29.53c-3.92,9.56,2.97,15,9.14,15h2.1v2.37h-51.24v-2.39h2.15c6.79,0,15.03-3.97,20.11-13.46l55.26-124.91c1.7-3.63,11.17-24.35,11.75-31.31h2.15l71.05,155.82Zm-58.18-40.72l-23.38-58.68-24.49,58.68h47.86Z"/>
        <path class="cls-1" d="M2887.09,548.52h-123.73l.04-2.39h3.02c8.36,0,15.15-6.7,15.31-15.03v-132.46c-.16-8.32-6.94-15.03-15.31-15.03h-3.02l-.04-2.39h72.6l-.04,2.39h-3.02c-8.36,0-15.15,6.7-15.31,15.03v139.66h31.37c23.87,0,39.37-14.83,46.77-38.55h2.39l-11.02,48.76Z"/>
        <path class="cls-1" d="M3132.82,478.77l2.31,41.13c-10.71,17.68-31.07,31.96-67.15,31.96-58.68-.24-96.95-32.67-96.95-87.22s36.93-86.75,97.63-86.75c25.45,0,45.87,5.91,59.42,12.95l.47,41h-1.99c-8.71-31.38-29.23-43.87-55.5-43.89-37.91,0-61.07,29.2-61.07,76.15s22.4,76.74,57.99,77.7c36.77-.04,55.41-16.05,62.85-63.04h2Z"/>
        <path class="cls-1" d="M3302.48,532.26c5.17,9.78,13.35,13.86,20.39,13.86h2v2.39h-76.14v-2.37h2.1c6.17,0,12.88-5.44,9.24-15l-11.76-29.53h-56.08l-12.23,29.53c-3.92,9.56,2.97,15,9.14,15h2.1v2.37h-51.24v-2.39h2.15c6.79,0,15.03-3.97,20.11-13.46l55.26-124.91c1.7-3.63,11.17-24.35,11.75-31.31h2.15l71.05,155.82Zm-58.18-40.72l-23.38-58.68-24.49,58.68h47.86Z"/>
        <path class="cls-1" d="M3410.51,381.23c28.97,0,56.84,11.78,56.84,45.07,0,20.11-12,42.71-39.12,45.41,10.09,3.31,19.07,12.8,24.38,21.17,.73,1.16,15.06,23.89,24.06,35.11,10.31,13.12,17.12,17.93,29.57,18.12v2.4h-23.27c-26.14,0-45.15-5.66-56.13-24.77-5.81-10.12-16.59-33.79-19.91-40.93-4.64-9.97-9.98-15.04-16.18-16.1v-2.27h7.29c12.85-.13,25.92-6.69,30.18-27.62,.56-2.91,1.09-6.76,.89-11.57-.96-22.85-12.49-33.08-28.19-33.46-6.34-.27-15.13,0-18.13-.08v139.41c.16,8.32,6.94,15.03,15.35,15.02h2.98l.04,2.39h-72.66l.04-2.39h3.02c8.33,0,15.09-6.64,15.3-14.91v-132.58c-.16-8.32-6.94-15.03-15.28-15.01h-3.05l-.04-2.38h82.01Z"/>
        <path class="cls-1" d="M3627.16,548.52h-123.73l.04-2.39h3.02c8.36,0,15.15-6.7,15.31-15.03v-133.23c-.54-7.97-7.17-14.26-15.28-14.26h-3.02l-.04-2.38h91.62c10.3-.09,24.08-2.48,28.53-4.35v41.78l-2.41-.04v-2.81c.03-14.38-9.01-23.78-23.34-24.38h-40.21v69.53h31.68c11.74-.22,20.3-8.84,20.26-20.48v-2.07l2.33-.03v55.23l-2.33-.03v-2.07c.03-11.54-8.39-20.11-19.96-20.47h-31.98v67.25h31.37c23.87,0,39.37-14.83,46.77-38.55h2.39l-11.01,48.76Z"/>
      </g>
      <g>
        <path class="cls-2" d="M1132.54,381.23v2.39h-3.35c-10,0-19.08,6.62-24.03,13.96l-47.05,74.91v58.6c.16,8.32,6.94,15.03,15.31,15.03h3.02l.04,2.39h-72.59l.04-2.39h3.02c8.31,0,15.07-6.62,15.3-14.88v-58.89l-45.51-75.03c-4.68-7.24-13.99-13.71-23.72-13.71h-3.34v-2.38h79.08v2.38h-3.01c-6.98,0-11.86,8.01-8.39,14.78l34.04,62.14,35.57-62.13c3.8-6.77-1.89-14.78-8.39-14.78h-3.01v-2.39h56.97Z"/>
        <path class="cls-2" d="M1255.3,532.26c5.17,9.78,13.35,13.86,20.39,13.86h2v2.39h-76.14v-2.37h2.1c6.17,0,12.88-5.44,9.24-15l-11.76-29.53h-56.08l-12.23,29.53c-3.92,9.56,2.97,15,9.14,15h2.1v2.37h-51.24v-2.39h2.15c6.79,0,15.03-3.97,20.11-13.46l55.26-124.91c1.7-3.63,11.17-24.35,11.75-31.31h2.15l71.05,155.82Zm-58.18-40.72l-23.38-58.68-24.49,58.68h47.86Z"/>
        <path class="cls-2" d="M1470.33,381.23l-.04,2.39h-4.41c-7.99,0-14.49,6.35-14.75,14.29v123.47c0,18.01,2.76,30.49,2.76,30.49h-2.17l-120.75-114.98v94.83c.19,7.99,6.71,14.41,14.75,14.41h4.41l.04,2.39h-72.44l.04-2.39h4.41c8.06,0,14.6-6.46,14.75-14.48v-124.14c0-17.77-2.78-29.85-2.78-29.85h2.36l120.56,114.93v-94.48c-.15-8.02-6.69-14.48-14.75-14.48h-4.41l-.04-2.39h72.46Z"/>
        <path class="cls-2" d="M1570.18,381.26c56.45,0,91.63,32.03,91.63,83.7s-35.17,83.57-91.63,83.57h-86.7l.04-2.39h3.02c8.35,0,15.13-6.69,15.31-15v-133.86c0-7.69-7.32-13.67-15.22-13.67h-3.02l-.04-2.37h86.62Zm-32.47,157.11h29.56c34.25,0,55.57-28.12,55.57-73.39s-21.41-73.62-55.57-73.62h-29.56v147.02Z"/>
        <path class="cls-2" d="M1819.49,532.26c5.17,9.78,13.35,13.86,20.39,13.86h2v2.39h-76.14v-2.37h2.1c6.17,0,12.88-5.44,9.24-15l-11.76-29.53h-56.08l-12.23,29.53c-3.92,9.56,2.97,15,9.14,15h2.1v2.37h-51.24v-2.39h2.15c6.79,0,15.03-3.97,20.11-13.46l55.26-124.91c1.7-3.63,11.17-24.35,11.75-31.31h2.15l71.05,155.82Zm-58.18-40.72l-23.38-58.68-24.49,58.68h47.86Z"/>
        <path class="cls-2" d="M1991.23,381.26c56.45,0,91.63,32.03,91.63,83.7s-35.17,83.57-91.63,83.57h-86.7l.04-2.39h3.02c8.35,0,15.13-6.69,15.31-15v-133.86c0-7.69-7.32-13.67-15.22-13.67h-3.02l-.04-2.37h86.62Zm-32.47,157.11h29.56c34.25,0,55.57-28.12,55.57-73.39s-21.41-73.62-55.57-73.62h-29.56v147.02Z"/>
        <path class="cls-2" d="M2221.35,548.52h-123.73l.04-2.39h3.02c8.36,0,15.15-6.7,15.31-15.03v-133.23c-.54-7.97-7.17-14.26-15.28-14.26h-3.02l-.04-2.38h91.62c10.3-.09,24.08-2.48,28.53-4.35v41.78l-2.41-.04v-2.81c.03-14.38-9.01-23.78-23.34-24.38h-40.21v69.53h31.68c11.74-.22,20.3-8.84,20.26-20.48v-2.07l2.33-.03v55.23l-2.33-.03v-2.07c.03-11.54-8.39-20.11-19.96-20.47h-31.98v67.25h31.37c23.87,0,39.37-14.83,46.77-38.55h2.39l-11.01,48.76Z"/>
        <path class="cls-2" d="M2437.17,381.23l-.04,2.39h-4.41c-7.99,0-14.49,6.35-14.75,14.29v123.47c0,18.01,2.76,30.49,2.76,30.49h-2.17l-120.75-114.98v94.83c.19,7.99,6.71,14.41,14.75,14.41h4.41l.04,2.39h-72.44l.04-2.39h4.41c8.06,0,14.6-6.46,14.75-14.48v-124.14c0-17.77-2.78-29.85-2.78-29.85h2.36l120.56,114.93v-94.48c-.15-8.02-6.69-14.48-14.75-14.48h-4.41l-.04-2.39h72.46Z"/>
        <path class="cls-2" d="M2600.26,418.31l-2.41-.04v-2.81c.03-14.57-9.25-24.03-23.91-24.4h-32.1v140.23c.26,8.24,7,14.84,15.3,14.84h3.02l.04,2.39h-72.63l.04-2.39h3.02c8.23,0,14.94-6.5,15.29-14.64v-140.43h-32.13c-14.66,.37-23.94,9.83-23.91,24.4v2.81l-2.41,.04v-41.65c4.41,1.86,18.04,4.22,28.32,4.34h96.13c10.28-.12,23.91-2.49,28.32-4.34v41.65Z"/>
        <path class="cls-2" d="M2738.05,532.26c5.17,9.78,13.35,13.86,20.39,13.86h2v2.39h-76.14v-2.37h2.1c6.17,0,12.88-5.44,9.24-15l-11.76-29.53h-56.08l-12.23,29.53c-3.92,9.56,2.97,15,9.14,15h2.1v2.37h-51.24v-2.39h2.15c6.79,0,15.03-3.97,20.11-13.46l55.26-124.91c1.7-3.63,11.17-24.35,11.75-31.31h2.15l71.05,155.82Zm-58.18-40.72l-23.38-58.68-24.49,58.68h47.86Z"/>
        <path class="cls-2" d="M2887.09,548.52h-123.73l.04-2.39h3.02c8.36,0,15.15-6.7,15.31-15.03v-132.46c-.16-8.32-6.94-15.03-15.31-15.03h-3.02l-.04-2.39h72.6l-.04,2.39h-3.02c-8.36,0-15.15,6.7-15.31,15.03v139.66h31.37c23.87,0,39.37-14.83,46.77-38.55h2.39l-11.02,48.76Z"/>
        <path class="cls-2" d="M3132.82,478.77l2.31,41.13c-10.71,17.68-31.07,31.96-67.15,31.96-58.68-.24-96.95-32.67-96.95-87.22s36.93-86.75,97.63-86.75c25.45,0,45.87,5.91,59.42,12.95l.47,41h-1.99c-8.71-31.38-29.23-43.87-55.5-43.89-37.91,0-61.07,29.2-61.07,76.15s22.4,76.74,57.99,77.7c36.77-.04,55.41-16.05,62.85-63.04h2Z"/>
        <path class="cls-2" d="M3302.48,532.26c5.17,9.78,13.35,13.86,20.39,13.86h2v2.39h-76.14v-2.37h2.1c6.17,0,12.88-5.44,9.24-15l-11.76-29.53h-56.08l-12.23,29.53c-3.92,9.56,2.97,15,9.14,15h2.1v2.37h-51.24v-2.39h2.15c6.79,0,15.03-3.97,20.11-13.46l55.26-124.91c1.7-3.63,11.17-24.35,11.75-31.31h2.15l71.05,155.82Zm-58.18-40.72l-23.38-58.68-24.49,58.68h47.86Z"/>
        <path class="cls-2" d="M3410.51,381.23c28.97,0,56.84,11.78,56.84,45.07,0,20.11-12,42.71-39.12,45.41,10.09,3.31,19.07,12.8,24.38,21.17,.73,1.16,15.06,23.89,24.06,35.11,10.31,13.12,17.12,17.93,29.57,18.12v2.4h-23.27c-26.14,0-45.15-5.66-56.13-24.77-5.81-10.12-16.59-33.79-19.91-40.93-4.64-9.97-9.98-15.04-16.18-16.1v-2.27h7.29c12.85-.13,25.92-6.69,30.18-27.62,.56-2.91,1.09-6.76,.89-11.57-.96-22.85-12.49-33.08-28.19-33.46-6.34-.27-15.13,0-18.13-.08v139.41c.16,8.32,6.94,15.03,15.35,15.02h2.98l.04,2.39h-72.66l.04-2.39h3.02c8.33,0,15.09-6.64,15.3-14.91v-132.58c-.16-8.32-6.94-15.03-15.28-15.01h-3.05l-.04-2.38h82.01Z"/>
        <path class="cls-2" d="M3627.16,548.52h-123.73l.04-2.39h3.02c8.36,0,15.15-6.7,15.31-15.03v-133.23c-.54-7.97-7.17-14.26-15.28-14.26h-3.02l-.04-2.38h91.62c10.3-.09,24.08-2.48,28.53-4.35v41.78l-2.41-.04v-2.81c.03-14.38-9.01-23.78-23.34-24.38h-40.21v69.53h31.68c11.74-.22,20.3-8.84,20.26-20.48v-2.07l2.33-.03v55.23l-2.33-.03v-2.07c.03-11.54-8.39-20.11-19.96-20.47h-31.98v67.25h31.37c23.87,0,39.37-14.83,46.77-38.55h2.39l-11.01,48.76Z"/>
      </g>
    </g>
    <g>
      <path class="cls-2" d="M1003.3,606.62c23.04,0,33.02,11.09,33.49,25.8,.84,23.22-24.05,36.18-43.26,23.57l-.02-1.27c-.08-.09,16.22,1.62,20.9-15.36,.64-2.38,.94-5.54,.83-8.09-.38-11.48-6.56-18.97-17.33-18.97h-8.98v78.76c.09,4.69,3.91,8.47,8.62,8.46h1.71l.02,1.35h-40.92l.02-1.35h1.7c4.71,0,8.54-3.78,8.63-8.47v-75.35c0-4.54-4.11-7.76-8.6-7.76h-1.69l-.02-1.34h44.9Z"/>
      <path class="cls-2" d="M1092.49,606.61c16.32,0,32.02,6.64,32.02,25.39,0,11.33-6.76,24.06-22.04,25.58,5.69,1.86,10.75,7.21,13.74,11.93,.41,.65,8.48,13.46,13.56,19.78,5.81,7.39,9.64,10.11,16.66,10.21v1.35h-13.11c-14.73,0-25.44-3.19-31.62-13.96-3.27-5.71-9.35-19.04-11.22-23.06-2.61-5.62-5.62-8.47-9.12-9.07v-1.28h4.11c7.24-.08,14.6-3.77,17-15.56,.32-1.64,.61-3.81,.5-6.52-.54-12.88-7.04-18.64-15.88-18.85-3.57-.15-8.52,0-10.21-.05v78.55c.09,4.69,3.91,8.47,8.65,8.46h1.68l.02,1.35h-40.94l.02-1.35h1.7c4.69,0,8.5-3.74,8.62-8.4v-74.7c-.09-4.69-3.91-8.47-8.61-8.46h-1.72l-.02-1.34h46.21Z"/>
      <path class="cls-2" d="M1249.3,653.74c0,30.26-20.63,49.01-52.97,49.01s-52.97-18.75-52.97-49.01,20.63-49.01,52.97-49.01,52.97,18.75,52.97,49.01Zm-22.09,0c0-26.74-11.9-43.35-30.88-43.35s-30.88,16.61-30.88,43.35,11.9,43.34,30.88,43.34,30.88-16.6,30.88-43.34Z"/>
      <path class="cls-2" d="M1352.54,606.61v1.35h-1.2c-3.85,0-8.47,2.2-11.34,7.5l-31.88,70.47c-.96,2.05-6.29,13.72-6.62,17.63h-1.21l-40.8-87.89c-2.92-5.45-7.51-7.71-11.48-7.71h-1.08v-1.35h42.88v1.34h-1.18c-3.48,0-7.08,3.05-5.18,8.44l22.8,55.65,23.72-55.65c2.21-5.39-1.67-8.44-5.15-8.44h-1.18v-1.34h28.9Z"/>
      <path class="cls-2" d="M1395.12,700.87h-40.9l.02-1.35h1.7c4.71,0,8.54-3.78,8.62-8.47v-74.69c-.12-4.66-3.93-8.41-8.62-8.41h-1.7l-.02-1.35h40.9l-.02,1.35h-1.7c-4.68,0-8.49,3.73-8.62,8.38v74.72c.09,4.69,3.91,8.47,8.62,8.47h1.7l.02,1.35Z"/>
      <path class="cls-2" d="M1455.04,606.63c31.81,0,51.63,18.04,51.63,47.16s-19.82,47.09-51.63,47.09h-48.85l.02-1.35h1.7c4.71,0,8.53-3.77,8.62-8.45v-75.42c0-4.33-4.12-7.7-8.58-7.7h-1.7l-.02-1.33h48.8Zm-18.29,88.52h16.66c19.3,0,31.31-15.84,31.31-41.35s-12.06-41.48-31.31-41.48h-16.65v82.84Z"/>
      <path class="cls-2" d="M1584.7,700.87h-69.71l.02-1.35h1.7c4.71,0,8.54-3.78,8.62-8.47v-75.07c-.31-4.49-4.04-8.04-8.61-8.04h-1.7l-.02-1.34h51.62c5.8-.05,13.57-1.39,16.07-2.45v23.54l-1.36-.02v-1.58c.02-8.1-5.08-13.4-13.15-13.74h-22.66v39.17h17.85c6.61-.13,11.44-4.98,11.42-11.54v-1.17l1.32-.02v31.12l-1.32-.02v-1.17c.02-6.5-4.73-11.33-11.25-11.53h-18.02v37.89h17.68c13.45,0,22.18-8.36,26.35-21.72h1.35l-6.21,27.48Z"/>
      <path class="cls-2" d="M1715.75,691.71c2.91,5.51,7.52,7.81,11.49,7.81h1.12v1.35h-42.9v-1.33h1.18c3.48,0,7.26-3.06,5.2-8.45l-6.63-16.64h-31.6l-6.89,16.64c-2.21,5.39,1.67,8.45,5.15,8.45h1.18v1.33h-28.87v-1.35h1.21c3.83,0,8.47-2.24,11.33-7.59l31.13-70.38c.96-2.05,6.29-13.72,6.62-17.64h1.21l40.03,87.8Zm-32.78-22.94l-13.17-33.06-13.8,33.06h26.97Z"/>
      <path class="cls-2" d="M1827.54,700.87l.02-1.35h1.7c4.68,0,8.48-3.72,8.62-8.36v-34.37h-43.65v34.27c.09,4.69,3.91,8.47,8.62,8.47h1.7l.02,1.35h-40.9l.02-1.35h1.7c4.71,0,8.54-3.78,8.62-8.47v-74.64c-.12-4.66-3.93-8.47-8.62-8.47h-1.7l-.02-1.34h40.9l-.02,1.34h-1.7c-4.68,0-8.49,3.82-8.62,8.47v34.69h43.65v-34.69c-.18-4.61-3.96-8.47-8.62-8.47h-1.7l-.02-1.35h40.9l-.02,1.35h-1.7c-4.71,0-8.54,3.78-8.62,8.47v74.64c.09,4.69,3.91,8.47,8.62,8.47h1.7l.02,1.35h-40.9Z"/>
      <path class="cls-2" d="M1949.33,700.87h-69.71l.02-1.35h1.7c4.71,0,8.54-3.78,8.62-8.47v-75.07c-.31-4.49-4.04-8.04-8.61-8.04h-1.7l-.02-1.34h51.62c5.8-.05,13.57-1.39,16.07-2.45v23.54l-1.36-.02v-1.58c.02-8.1-5.08-13.4-13.15-13.74h-22.66v39.17h17.85c6.61-.13,11.44-4.98,11.42-11.54v-1.17l1.32-.02v31.12l-1.32-.02v-1.17c.02-6.5-4.73-11.33-11.25-11.53h-18.02v37.89h17.68c13.45,0,22.18-8.36,26.35-21.72h1.35l-6.21,27.48Z"/>
      <path class="cls-2" d="M2046.72,691.71c2.91,5.51,7.52,7.81,11.49,7.81h1.12v1.35h-42.9v-1.33h1.18c3.48,0,7.26-3.06,5.2-8.45l-6.63-16.64h-31.6l-6.89,16.64c-2.21,5.39,1.67,8.45,5.15,8.45h1.18v1.33h-28.87v-1.35h1.21c3.83,0,8.47-2.24,11.33-7.59l31.13-70.38c.96-2.05,6.29-13.72,6.62-17.64h1.21l40.03,87.8Zm-32.78-22.94l-13.17-33.06-13.8,33.06h26.97Z"/>
      <path class="cls-2" d="M2130.7,700.87h-69.71l.02-1.35h1.7c4.71,0,8.54-3.78,8.62-8.47v-74.63c-.09-4.69-3.91-8.47-8.63-8.47h-1.7l-.02-1.35h40.9l-.02,1.35h-1.7c-4.71,0-8.54,3.78-8.63,8.47v78.69h17.68c13.45,0,22.18-8.36,26.35-21.72h1.35l-6.21,27.48Z"/>
      <path class="cls-2" d="M2219.66,627.5l-1.36-.02v-1.58c.02-8.21-5.21-13.54-13.47-13.75h-18.09v79.01c.14,4.64,3.95,8.36,8.62,8.36h1.7l.02,1.35h-40.92l.02-1.35h1.7c4.64,0,8.42-3.66,8.62-8.25v-79.12h-18.1c-8.26,.21-13.49,5.54-13.47,13.75v1.58l-1.36,.02v-23.47c2.49,1.05,10.17,2.38,15.96,2.45h54.17c5.79-.07,13.47-1.4,15.96-2.45v23.47Z"/>
      <path class="cls-2" d="M2290.86,700.87l.02-1.35h1.7c4.68,0,8.48-3.72,8.62-8.36v-34.37h-43.65v34.27c.09,4.69,3.91,8.47,8.62,8.47h1.7l.02,1.35h-40.9l.02-1.35h1.7c4.71,0,8.54-3.78,8.62-8.47v-74.64c-.12-4.66-3.93-8.47-8.62-8.47h-1.7l-.02-1.34h40.9l-.02,1.34h-1.7c-4.68,0-8.49,3.82-8.62,8.47v34.69h43.65v-34.69c-.18-4.61-3.96-8.47-8.62-8.47h-1.7l-.02-1.35h40.9l-.02,1.35h-1.7c-4.71,0-8.54,3.78-8.62,8.47v74.64c.09,4.69,3.91,8.47,8.62,8.47h1.7l.02,1.35h-40.9Z"/>
      <path class="cls-2" d="M2436.16,606.61v1.35h-1.88c-5.63,0-10.75,3.73-13.54,7.87l-26.51,42.21v33.02c.09,4.69,3.91,8.47,8.62,8.47h1.7l.02,1.35h-40.9l.02-1.35h1.7c4.68,0,8.49-3.73,8.62-8.38v-33.18l-25.64-42.27c-2.64-4.08-7.88-7.73-13.37-7.73h-1.88v-1.34h44.56v1.34h-1.7c-3.93,0-6.68,4.51-4.73,8.33l19.18,35.01,20.04-35.01c2.14-3.82-1.06-8.33-4.73-8.33h-1.7v-1.35h32.1Z"/>
      <path class="cls-2" d="M2524.97,652.55c8,5.2,12.66,12.26,12.09,22.33-.82,17.54-14.04,27.88-35.57,27.88-12.08,0-23.39-3.11-28.3-8.17-2.23-5.63-.33-16.98,3.19-22.86h1.18c-1.08,14.04,9.24,25.62,25.39,25.36,11.71-.21,18.61-6.7,18.61-15.14,0-5.46-3.53-9.1-10.76-13.91l-23.46-15.57c-9.26-6.15-13.87-14.35-12.88-24.16,1.14-13.94,11.36-23.57,28.34-23.57,4.33,0,12.19,.6,18.34,1.38h8.46l-1.76,19.79h-1.3c-.02-9.35-7.59-15.5-18.98-15.5-10.6,0-17.3,5.72-17.62,12.95-.33,5.3,3.74,8.85,9.38,12.52l25.67,16.68Z"/>
      <path class="cls-2" d="M2661.05,691.08c.85,5.32,5,8.44,9.81,8.44h2.14v1.35h-40.46v-1.27h2.1c2.9,0,5.57-2.83,5.25-5.75l-5.33-48.79-25.22,43.62s-5.01,8.34-5.19,14.88h-1.27l-34.65-58.17-5.3,48.45c-.32,2.9,2.35,5.74,5.25,5.75h2.1v1.27h-28.18v-1.35h2.13c4.84,0,9.15-3.11,9.85-8.44l11.16-86.35h1.25l41.78,68.69,40.05-68.65h1.23l11.5,86.31Z"/>
      <path class="cls-2" d="M2718.16,700.87h-40.9l.02-1.35h1.7c4.71,0,8.54-3.78,8.62-8.47v-74.69c-.12-4.66-3.93-8.41-8.62-8.41h-1.7l-.02-1.35h40.9l-.02,1.35h-1.7c-4.68,0-8.49,3.73-8.62,8.38v74.72c.09,4.69,3.91,8.47,8.62,8.47h1.7l.02,1.35Z"/>
      <path class="cls-2" d="M2798.95,700.87h-69.71l.02-1.35h1.7c4.71,0,8.54-3.78,8.62-8.47v-74.63c-.09-4.69-3.91-8.47-8.63-8.47h-1.7l-.02-1.35h40.9l-.02,1.35h-1.7c-4.71,0-8.54,3.78-8.63,8.47v78.69h17.68c13.45,0,22.18-8.36,26.35-21.72h1.35l-6.21,27.48Z"/>
      <path class="cls-2" d="M2881.09,700.87h-69.71l.02-1.35h1.7c4.71,0,8.54-3.78,8.62-8.47v-75.07c-.31-4.49-4.04-8.04-8.61-8.04h-1.7l-.02-1.34h51.62c5.8-.05,13.57-1.39,16.07-2.45v23.54l-1.36-.02v-1.58c.02-8.1-5.08-13.4-13.15-13.74h-22.66v39.17h17.85c6.61-.13,11.44-4.98,11.42-11.54v-1.17l1.32-.02v31.12l-1.32-.02v-1.17c.02-6.5-4.73-11.33-11.25-11.53h-18.02v37.89h17.68c13.45,0,22.18-8.36,26.35-21.72h1.35l-6.21,27.48Z"/>
    </g>
  </g>
  <g>
    <path class="cls-2" d="M453.63,597.45h0c-99.6,0-269.06-118.37-269.06-291.35,0-71.4,68.31-95.31,123.03-95.31,47.85,0,93.7,18.28,120.85,31.68-8.93,12.58-37.89,34.73-55.77,34.73s-26.93-8.5-27.45-8.75c.22,.49,7.92,16.37,29.05,16.37,35.64,0,79.34-28.52,79.34-28.52h0c.22-.14,70.63-45.52,146.01-45.52,54.72,0,123.03,23.91,123.03,95.33,0,172.96-169.43,291.33-269.03,291.34Zm-255.63-57.65c-14.38-15.37-54.62-7.69-43.8,102.53,10.82,110.22,90.83,260.95,146.63,255.47,44.78-4.39,40.78-54.17,60.95-108.92,21.28-57.79,46.96-76.94,45.38-93.02-2.7-27.56-82.24-20.38-209.16-156.07Zm511.45-1.26c-124.7,137.73-204.34,131.85-206.6,159.44-.38,4.62,1.5,9.46,4.88,15.36h0c.42,.74,.87,1.5,1.34,2.27,8.31,14.61,51.33,98.75,17.2,220.88-20.38,72.92,121.57,8.09,191.93-159.26,0,0,0,0,0-.01,19.13-44.08,33.17-93.67,36.7-136.88,9.03-110.38-31.33-117.41-45.46-101.81Z"/>
    <path class="cls-2" d="M453.62,210.78h0c0-26.76-21.69-48.45-48.45-48.45h0c26.76,0,48.45-21.69,48.45-48.45h0c0,26.76,21.69,48.45,48.45,48.45h0c-26.76,0-48.45,21.69-48.45,48.45Z"/>
  </g>
</svg>